<svg xmlns="http://www.w3.org/2000/svg" version="1.1" xmlns:xlink="http://www.w3.org/1999/xlink" width="512" height="512" x="0" y="0" viewBox="0 0 512.003 512.003" style="enable-background:new 0 0 512 512" xml:space="preserve"><g><path d="M94.526 244.616a6.53 6.53 0 0 0-5.267-4.439l-24.899-3.611-11.126-22.481c-2.203-4.445-9.484-4.445-11.687 0l-11.126 22.481-24.84 3.611a6.54 6.54 0 0 0-5.26 4.439 6.508 6.508 0 0 0 1.649 6.681l18.016 17.553-4.25 24.782a6.53 6.53 0 0 0 2.594 6.381 6.538 6.538 0 0 0 6.87.489l22.188-11.7 22.253 11.7c.952.502 1.995.75 3.031.75a6.57 6.57 0 0 0 3.846-1.245 6.523 6.523 0 0 0 2.594-6.375l-4.243-24.782 18.009-17.553a6.508 6.508 0 0 0 1.648-6.681zM198.815 244.616a6.53 6.53 0 0 0-5.267-4.439l-24.899-3.611-11.126-22.481c-2.203-4.445-9.484-4.445-11.687 0l-11.126 22.481-24.84 3.611a6.54 6.54 0 0 0-5.26 4.439 6.508 6.508 0 0 0 1.649 6.681l18.016 17.553-4.25 24.782a6.53 6.53 0 0 0 2.594 6.381 6.54 6.54 0 0 0 6.87.489l22.188-11.7 22.253 11.7c.952.502 1.995.75 3.031.75a6.57 6.57 0 0 0 3.846-1.245 6.523 6.523 0 0 0 2.594-6.375l-4.243-24.782 18.009-17.553a6.508 6.508 0 0 0 1.648-6.681zM303.104 244.616a6.53 6.53 0 0 0-5.267-4.439l-24.899-3.611-11.126-22.481c-2.203-4.445-9.484-4.445-11.687 0l-11.126 22.481-24.84 3.611a6.54 6.54 0 0 0-5.26 4.439 6.508 6.508 0 0 0 1.649 6.681l18.016 17.553-4.25 24.782a6.53 6.53 0 0 0 2.594 6.381 6.54 6.54 0 0 0 6.87.489l22.187-11.7 22.253 11.7c.952.502 1.995.75 3.031.75a6.57 6.57 0 0 0 3.846-1.245 6.523 6.523 0 0 0 2.594-6.375l-4.243-24.782 18.009-17.553a6.507 6.507 0 0 0 1.649-6.681zM407.393 244.616a6.53 6.53 0 0 0-5.267-4.439l-24.899-3.611-11.126-22.481c-2.203-4.445-9.484-4.445-11.687 0l-11.126 22.481-24.84 3.611a6.54 6.54 0 0 0-5.26 4.439 6.508 6.508 0 0 0 1.649 6.681l18.016 17.553-4.25 24.782a6.53 6.53 0 0 0 2.594 6.381 6.541 6.541 0 0 0 6.87.489l22.187-11.7 22.253 11.7c.952.502 1.995.75 3.031.75a6.57 6.57 0 0 0 3.846-1.245 6.523 6.523 0 0 0 2.594-6.375l-4.243-24.782 18.009-17.553a6.509 6.509 0 0 0 1.649-6.681zm-31.228 17.292a6.52 6.52 0 0 0-1.877 5.768l2.594 15.148-13.603-7.157a6.457 6.457 0 0 0-3.031-.75 6.464 6.464 0 0 0-3.031.756l-13.531 7.131 2.594-15.128a6.528 6.528 0 0 0-1.877-5.768l-11.009-10.729 15.155-2.203a6.51 6.51 0 0 0 4.902-3.559l6.798-13.747 6.798 13.747a6.508 6.508 0 0 0 4.908 3.559l15.213 2.21-11.003 10.722zM511.682 244.616a6.53 6.53 0 0 0-5.267-4.439l-24.899-3.611-11.126-22.481c-2.203-4.445-9.484-4.445-11.687 0l-11.126 22.481-24.84 3.611a6.54 6.54 0 0 0-5.26 4.439 6.508 6.508 0 0 0 1.649 6.681l18.016 17.553-4.25 24.782a6.53 6.53 0 0 0 2.594 6.381 6.541 6.541 0 0 0 6.87.489l22.188-11.7 22.253 11.7c.952.502 1.995.75 3.031.75a6.57 6.57 0 0 0 3.846-1.245 6.523 6.523 0 0 0 2.594-6.375l-4.243-24.782 18.009-17.553a6.51 6.51 0 0 0 1.648-6.681zm-31.228 17.292a6.52 6.52 0 0 0-1.877 5.768l2.594 15.148-13.603-7.157a6.457 6.457 0 0 0-3.031-.75 6.464 6.464 0 0 0-3.031.756l-13.531 7.131 2.594-15.128a6.526 6.526 0 0 0-1.877-5.768l-11.009-10.729 15.154-2.203a6.51 6.51 0 0 0 4.902-3.559l6.798-13.747 6.798 13.747a6.508 6.508 0 0 0 4.908 3.559l15.213 2.21-11.002 10.722z" fill="#000000" opacity="1" data-original="#000000"></path></g></svg>